<?xml version="1.0" encoding="UTF-8" standalone="no"?>
<svg
   width="512"
   height="256"
   viewBox="0 0 512 256"
   version="1.1"
   xmlns:inkscape="http://www.inkscape.org/namespaces/inkscape"
   xmlns:sodipodi="http://sodipodi.sourceforge.net/DTD/sodipodi-0.dtd"
   xmlns="http://www.w3.org/2000/svg">
  <defs>
    <linearGradient id="body_grad" x1="0%" y1="0%" x2="0%" y2="100%">
      <stop offset="0%" style="stop-color:#1e3a5f;stop-opacity:1"/>
      <stop offset="100%" style="stop-color:#0f1629;stop-opacity:1"/>
    </linearGradient>
    <linearGradient id="nib_grad" x1="0%" y1="0%" x2="100%" y2="0%">
      <stop offset="0%" style="stop-color:#c0c0c0;stop-opacity:1"/>
      <stop offset="50%" style="stop-color:#e8e8e8;stop-opacity:1"/>
      <stop offset="100%" style="stop-color:#a0a0a0;stop-opacity:1"/>
    </linearGradient>
  </defs>
  <g inkscape:groupmode="layer" inkscape:label="Shadow">
    <path d="M 120 155 C 180 162 350 165 420 155 C 350 170 180 168 120 155 Z" style="fill:#00000030;stroke:none;opacity:0.3"/>
  </g>
  <g inkscape:groupmode="layer" inkscape:label="Wing">
    <path d="M 220 128 L 330 195 L 350 185 L 260 128 Z" style="fill:#2563eb;stroke:none"/>
    <path d="M 380 128 L 420 160 L 435 155 L 400 128 Z" style="fill:#1d4ed8;stroke:none"/>
    <path d="M 390 128 L 415 60 L 435 65 L 430 120 L 410 128 Z" style="fill:#3b82f6;stroke:none"/>
  </g>
  <g inkscape:groupmode="layer" inkscape:label="Body">
    <path d="M 75 128 C 100 108 150 100 200 100 L 400 105 C 430 108 440 118 440 128 C 440 138 430 148 400 151 L 200 156 C 150 156 100 148 75 128 Z" style="fill:url(#body_grad);stroke:none"/>
  </g>
  <g inkscape:groupmode="layer" inkscape:label="Details">
    <path d="M 75 128 L 120 112 L 120 144 Z" style="fill:url(#nib_grad);stroke:none"/>
    <path d="M 130 110 C 180 106 250 104 400 108 L 400 114 C 250 110 180 112 130 116 Z" style="fill:#ffffff;stroke:none;opacity:0.25"/>
    <path d="M 140 118 C 145 114 155 114 160 118 C 155 120 145 120 140 118 Z" style="fill:#60a5fa;stroke:none"/>
  </g>
  <g inkscape:groupmode="layer" inkscape:label="Text">
    <text x="170.0" y="230.0" style="font-size:32px;fill:#60a5fa;font-family:sans-serif;font-weight:bold">INKPILOT</text>
  </g>
</svg>
